<svg xmlns="http://www.w3.org/2000/svg" viewBox="0 0 416 256" width="416" height="256">
  <defs>
    <linearGradient id="bg" x1="0%" y1="0%" x2="100%" y2="100%">
      <stop offset="0%" stop-color="#1578C2"/>
      <stop offset="40%" stop-color="#2A9AD4"/>
      <stop offset="70%" stop-color="#5EC4D8"/>
      <stop offset="90%" stop-color="#A0DDD6"/>
      <stop offset="100%" stop-color="#E8E4B8"/>
    </linearGradient>
  </defs>
  <rect width="416" height="256" fill="url(#bg)"/>
  <path d="M-20,0 Q80,45 190,30 T436,72 V0 Z" fill="rgba(18,90,170,0.45)"/>
  <path d="M-20,0 Q110,65 220,48 T436,95 V0 Z" fill="rgba(25,120,194,0.30)"/>
  <path d="M-20,20 Q95,78 210,60 T436,108 V0 Z" fill="rgba(42,154,212,0.22)"/>
  <path d="M-20,256 Q60,195 170,210 T330,175 T436,190 V256 Z" fill="rgba(80,190,210,0.20)"/>
  <path d="M-20,256 Q80,210 200,225 T360,195 T436,210 V256 Z" fill="rgba(120,210,200,0.15)"/>
  <path d="M160,256 Q250,220 340,230 T436,200 V256 Z" fill="rgba(200,220,170,0.12)"/>
  <text x="208" y="138" text-anchor="middle" font-family="'Inter', 'Segoe UI', system-ui, sans-serif" font-size="22" font-weight="700" fill="white" style="filter: drop-shadow(0 1px 3px rgba(0,0,0,0.35))">AI tool Haaglanden</text>
</svg>