<svg xmlns="http://www.w3.org/2000/svg" viewBox="0 0 416 256" width="416" height="256">
  <defs>
    <linearGradient id="bg" x1="0%" y1="10%" x2="100%" y2="90%">
      <stop offset="0%" stop-color="#1880C8"/>
      <stop offset="38%" stop-color="#2EA0D8"/>
      <stop offset="68%" stop-color="#62C6DA"/>
      <stop offset="92%" stop-color="#A5E0D8"/>
      <stop offset="100%" stop-color="#EBE7BC"/>
    </linearGradient>
  </defs>
  <rect width="416" height="256" fill="url(#bg)"/>
  <path d="M-20,0 Q75,38 185,25 T436,65 V0 Z" fill="rgba(20,95,175,0.42)"/>
  <path d="M-20,0 Q105,58 210,42 T436,88 V0 Z" fill="rgba(28,125,198,0.28)"/>
  <path d="M-20,18 Q88,72 200,55 T436,100 V0 Z" fill="rgba(45,158,215,0.20)"/>
  <path d="M-20,256 Q58,188 168,202 T325,170 T436,185 V256 Z" fill="rgba(85,195,215,0.18)"/>
  <path d="M-20,256 Q88,212 198,225 T352,198 T436,212 V256 Z" fill="rgba(125,215,205,0.13)"/>
  <path d="M150,256 Q240,218 335,228 T436,198 V256 Z" fill="rgba(205,225,175,0.11)"/>
  <text x="208" y="138" text-anchor="middle" font-family="'Inter', 'Segoe UI', system-ui, sans-serif" font-size="22" font-weight="700" fill="white" style="filter: drop-shadow(0 1px 3px rgba(0,0,0,0.35))">datadreamteam</text>
</svg>