<svg xmlns="http://www.w3.org/2000/svg" viewBox="0 0 416 256" width="416" height="256">
  <defs>
    <linearGradient id="bg" x1="0%" y1="0%" x2="100%" y2="100%">
      <stop offset="0%" stop-color="#1372BC"/>
      <stop offset="38%" stop-color="#2A98D2"/>
      <stop offset="68%" stop-color="#58C0D6"/>
      <stop offset="90%" stop-color="#9CDAD2"/>
      <stop offset="100%" stop-color="#E6E2B6"/>
    </linearGradient>
  </defs>
  <rect width="416" height="256" fill="url(#bg)"/>
  <path d="M-20,0 Q78,48 188,32 T436,74 V0 Z" fill="rgba(16,86,164,0.47)"/>
  <path d="M-20,0 Q108,68 218,52 T436,98 V0 Z" fill="rgba(23,116,190,0.31)"/>
  <path d="M-20,24 Q105,78 215,62 T436,110 V0 Z" fill="rgba(39,150,208,0.21)"/>
  <path d="M-20,256 Q62,192 172,206 T330,172 T436,188 V256 Z" fill="rgba(80,190,212,0.20)"/>
  <path d="M-20,256 Q90,215 200,228 T355,200 T436,215 V256 Z" fill="rgba(120,210,202,0.14)"/>
  <path d="M168,256 Q255,222 345,232 T436,202 V256 Z" fill="rgba(200,220,170,0.10)"/>
  <text x="208" y="128" text-anchor="middle" font-family="'Inter', 'Segoe UI', system-ui, sans-serif" font-size="26" font-weight="700" fill="white" style="filter: drop-shadow(0 1px 3px rgba(0,0,0,0.35))">GBI</text>
  <text x="208" y="152" text-anchor="middle" font-family="'Inter', 'Segoe UI', system-ui, sans-serif" font-size="11" font-weight="400" fill="rgba(255,255,255,0.8)" style="filter: drop-shadow(0 1px 2px rgba(0,0,0,0.25))">Gemeentelijke Basisprocessen</text>
</svg>