<svg xmlns="http://www.w3.org/2000/svg" viewBox="0 0 416 256" width="416" height="256">
  <defs>
    <linearGradient id="bg" x1="0%" y1="0%" x2="100%" y2="100%">
      <stop offset="0%" stop-color="#107CC4"/>
      <stop offset="40%" stop-color="#2C9ED6"/>
      <stop offset="70%" stop-color="#60C4D9"/>
      <stop offset="91%" stop-color="#A4E0D7"/>
      <stop offset="100%" stop-color="#EAE6BB"/>
    </linearGradient>
  </defs>
  <rect width="416" height="256" fill="url(#bg)"/>
  <path d="M-20,0 Q78,50 188,34 T436,76 V0 Z" fill="rgba(14,78,156,0.48)"/>
  <path d="M-20,0 Q106,70 216,52 T436,100 V0 Z" fill="rgba(21,108,182,0.32)"/>
  <path d="M-20,24 Q112,80 222,64 T436,112 V0 Z" fill="rgba(36,144,204,0.21)"/>
  <path d="M-20,256 Q64,193 174,208 T334,174 T436,190 V256 Z" fill="rgba(76,186,208,0.21)"/>
  <path d="M-20,256 Q91,215 201,228 T356,200 T436,215 V256 Z" fill="rgba(112,202,196,0.14)"/>
  <path d="M174,256 Q258,222 348,232 T436,202 V256 Z" fill="rgba(196,216,166,0.10)"/>
  <text x="208" y="128" text-anchor="middle" font-family="'Inter', 'Segoe UI', system-ui, sans-serif" font-size="17" font-weight="700" fill="white" style="filter: drop-shadow(0 1px 3px rgba(0,0,0,0.35))">Open source</text>
  <text x="208" y="150" text-anchor="middle" font-family="'Inter', 'Segoe UI', system-ui, sans-serif" font-size="17" font-weight="700" fill="white" style="filter: drop-shadow(0 1px 3px rgba(0,0,0,0.35))">softwareontwikkeling</text>
</svg>