<svg xmlns="http://www.w3.org/2000/svg" viewBox="0 0 416 256" width="416" height="256">
  <defs>
    <linearGradient id="bg" x1="0%" y1="0%" x2="100%" y2="100%">
      <stop offset="0%" stop-color="#1580C8"/>
      <stop offset="40%" stop-color="#2EA0D8"/>
      <stop offset="70%" stop-color="#62C6DA"/>
      <stop offset="91%" stop-color="#A6E0D8"/>
      <stop offset="100%" stop-color="#ECEBBD"/>
    </linearGradient>
  </defs>
  <rect width="416" height="256" fill="url(#bg)"/>
  <path d="M-20,0 Q82,44 192,29 T436,70 V0 Z" fill="rgba(18,90,170,0.45)"/>
  <path d="M-20,0 Q110,64 220,47 T436,94 V0 Z" fill="rgba(25,120,194,0.30)"/>
  <path d="M-20,19 Q100,72 210,56 T436,102 V0 Z" fill="rgba(41,153,210,0.20)"/>
  <path d="M-20,256 Q60,188 170,204 T326,170 T436,186 V256 Z" fill="rgba(84,194,215,0.20)"/>
  <path d="M-20,256 Q86,210 196,224 T352,196 T436,212 V256 Z" fill="rgba(122,212,204,0.13)"/>
  <path d="M164,256 Q248,218 338,228 T436,198 V256 Z" fill="rgba(204,224,174,0.11)"/>
  <text x="208" y="138" text-anchor="middle" font-family="'Inter', 'Segoe UI', system-ui, sans-serif" font-size="28" font-weight="700" fill="white" style="filter: drop-shadow(0 1px 3px rgba(0,0,0,0.35))">Polis</text>
</svg>