<svg preserveAspectRatio="none" width="100%" height="100%" overflow="visible" style="display: block;" viewBox="0 0 17.6829 7.59411" fill="none" xmlns="http://www.w3.org/2000/svg">
<path id="XMLID_293_" d="M17.6829 3.82324C17.6829 5.91817 16.0754 7.59411 14.0659 7.59411C13.011 7.59411 12.0565 7.12275 11.4035 6.38953C10.7504 5.70867 9.84615 5.23732 8.84144 5.23732C7.88697 5.23732 6.98273 5.6563 6.32967 6.28478C5.67661 7.07038 4.72213 7.59411 3.61695 7.59411C1.60753 7.59411 0 5.91817 0 3.82324C0 1.78069 1.60753 0.0523724 3.61695 0.0523724C4.72213 0.0523724 5.72684 0.576105 6.37991 1.41408C7.03297 2.04255 7.88697 2.40916 8.79121 2.40916C9.29356 2.40916 9.74568 2.30442 10.1978 2.09493C10.5997 1.88543 11.0016 1.62357 11.303 1.30933C11.956 0.523732 12.9608 0 14.0157 0C16.0754 0.0523732 17.6829 1.72831 17.6829 3.82324Z" fill="var(--fill-0, white)"/>
</svg>
