<svg preserveAspectRatio="none" width="100%" height="100%" overflow="visible" style="display: block;" viewBox="0 0 12.7398 17.0357" fill="none" xmlns="http://www.w3.org/2000/svg">
<path id="XMLID_294_" d="M12.2392 5.68969C11.6867 6.63241 10.8327 7.26089 9.82795 7.47038H9.77771C8.87347 7.73224 8.01947 8.30835 7.51711 9.19869C7.01476 10.089 6.91429 11.0841 7.11523 12.0268C7.41664 13.0219 7.36641 14.1741 6.81382 15.1692C5.75887 17.0023 3.54851 17.5784 1.79027 16.4786C0.0320263 15.3787 -0.520564 13.0743 0.534381 11.2412C0.835794 10.7175 1.23768 10.2985 1.6898 9.98429C2.09168 9.82717 2.59404 9.61768 3.09639 9.51293C3.95039 9.25107 4.70393 8.67496 5.20628 7.83699C5.45746 7.36563 5.60817 6.89427 5.70864 6.42291C5.75887 5.95156 5.75887 5.4802 5.6584 5.00884C5.30675 4.01375 5.40722 2.86154 5.95981 1.86645C6.96452 0.0333889 9.22512 -0.542715 10.9834 0.557121C12.6914 1.55221 13.244 3.909 12.2392 5.68969Z" fill="var(--fill-0, white)"/>
</svg>
