<svg preserveAspectRatio="none" width="100%" height="100%" overflow="visible" style="display: block;" viewBox="0 0 11.0518 4.74632" fill="none" xmlns="http://www.w3.org/2000/svg">
<path id="XMLID_293_" d="M11.0518 2.38953C11.0518 3.69885 10.0471 4.74632 8.79121 4.74632C8.13187 4.74632 7.53532 4.45172 7.12716 3.99345C6.719 3.56792 6.15385 3.27332 5.5259 3.27332C4.92936 3.27332 4.36421 3.53519 3.95604 3.92799C3.54788 4.41899 2.95133 4.74632 2.2606 4.74632C1.00471 4.74632 0 3.69885 0 2.38953C0 1.11293 1.00471 0.0327327 2.2606 0.0327327C2.95133 0.0327327 3.57928 0.360066 3.98744 0.883797C4.3956 1.2766 4.92936 1.50573 5.49451 1.50573C5.80848 1.50573 6.09105 1.44026 6.37363 1.30933C6.6248 1.1784 6.87598 1.01473 7.06436 0.818331C7.47253 0.327332 8.10047 0 8.75981 0C10.0471 0.0327332 11.0518 1.0802 11.0518 2.38953Z" fill="var(--fill-0, white)"/>
</svg>
