<svg preserveAspectRatio="none" width="100%" height="100%" overflow="visible" style="display: block;" viewBox="0 0 7.96238 10.6473" fill="none" xmlns="http://www.w3.org/2000/svg">
<path id="XMLID_294_" d="M7.64953 3.55606C7.30416 4.14525 6.77041 4.53805 6.14247 4.66899H6.11107C5.54592 4.83265 5.01217 5.19272 4.6982 5.74918C4.38422 6.30565 4.32143 6.92758 4.44702 7.51678C4.6354 8.13871 4.604 8.85884 4.25864 9.48077C3.59929 10.6264 2.21782 10.9865 1.11892 10.2991C0.0200165 9.6117 -0.325352 8.17144 0.333988 7.02578C0.522371 6.69845 0.773549 6.43658 1.05612 6.24018C1.3073 6.14198 1.62127 6.01105 1.93524 5.94558C2.469 5.78192 2.93995 5.42185 3.25393 4.89812C3.41091 4.60352 3.5051 4.30892 3.5679 4.01432C3.59929 3.71972 3.59929 3.42512 3.5365 3.13052C3.31672 2.50859 3.37951 1.78846 3.72488 1.16653C4.35283 0.0208681 5.7657 -0.339197 6.8646 0.348201C7.93211 0.970132 8.27747 2.44313 7.64953 3.55606Z" fill="var(--fill-0, white)"/>
</svg>
